<svg width="459" height="1020" viewBox="0 0 459 1020" fill="none" xmlns="http://www.w3.org/2000/svg">
<path d="M318.271 535.917L299.742 547.371C299.389 547.578 298.962 547.647 298.55 547.564C298.345 547.52 298.149 547.441 297.973 547.33C297.714 547.159 297.512 546.921 297.393 546.644C297.274 546.368 297.243 546.067 297.304 545.777L303.365 516.461C303.424 516.171 303.572 515.907 303.791 515.7C304.01 515.494 304.29 515.355 304.595 515.301C304.903 515.255 305.221 515.293 305.511 515.41C305.801 515.528 306.052 515.72 306.235 515.965L318.703 533.828C318.936 534.166 319.022 534.575 318.941 534.966C318.86 535.358 318.619 535.699 318.271 535.917Z" fill="#111111"/>
<path d="M196.038 520.493L205.329 540.195C205.512 540.562 205.832 540.852 206.223 541.007C206.419 541.082 206.626 541.123 206.835 541.125C207.145 541.124 207.444 541.034 207.694 540.867C207.944 540.7 208.135 540.464 208.241 540.189L219.14 512.306C219.248 512.031 219.268 511.729 219.198 511.437C219.127 511.144 218.968 510.875 218.741 510.664C218.508 510.457 218.221 510.316 217.914 510.256C217.607 510.196 217.291 510.221 217.004 510.326L196.815 518.506C196.435 518.662 196.14 518.959 195.995 519.331C195.849 519.703 195.865 520.12 196.038 520.493Z" fill="#111111"/>
<path d="M365.27 1074.38L346.741 1085.84C346.388 1086.04 345.962 1086.11 345.55 1086.03C345.345 1085.99 345.149 1085.91 344.972 1085.8C344.713 1085.63 344.512 1085.39 344.393 1085.11C344.274 1084.83 344.243 1084.53 344.303 1084.24L350.365 1054.93C350.424 1054.64 350.572 1054.37 350.791 1054.17C351.01 1053.96 351.29 1053.82 351.595 1053.77C351.903 1053.72 352.22 1053.76 352.511 1053.88C352.801 1053.99 353.052 1054.19 353.235 1054.43L365.702 1072.29C365.936 1072.63 366.022 1073.04 365.941 1073.43C365.86 1073.82 365.619 1074.17 365.27 1074.38Z" fill="#111111"/>
<path d="M243.038 1058.96L252.329 1078.66C252.512 1079.03 252.832 1079.32 253.222 1079.47C253.418 1079.55 253.626 1079.59 253.834 1079.59C254.144 1079.59 254.443 1079.5 254.694 1079.33C254.944 1079.17 255.135 1078.93 255.241 1078.66L266.14 1050.77C266.248 1050.5 266.268 1050.2 266.197 1049.9C266.126 1049.61 265.968 1049.34 265.741 1049.13C265.508 1048.92 265.221 1048.78 264.914 1048.72C264.606 1048.66 264.291 1048.69 264.004 1048.79L243.815 1056.97C243.435 1057.13 243.14 1057.42 242.994 1057.8C242.849 1058.17 242.865 1058.59 243.038 1058.96Z" fill="#111111"/>
<path d="M136.86 131.493L146.151 151.196C146.334 151.562 146.653 151.853 147.044 152.007C147.24 152.083 147.448 152.123 147.656 152.126C147.966 152.124 148.265 152.034 148.515 151.867C148.766 151.701 148.956 151.465 149.063 151.189L159.962 123.307C160.07 123.032 160.09 122.729 160.019 122.437C159.948 122.145 159.789 121.876 159.563 121.664C159.33 121.457 159.043 121.316 158.736 121.256C158.428 121.197 158.113 121.221 157.826 121.327L137.636 129.507C137.256 129.663 136.961 129.959 136.816 130.331C136.671 130.703 136.686 131.121 136.86 131.493Z" fill="#111111"/>
<path d="M251.587 144.262L234.6 154.762C234.277 154.953 233.886 155.016 233.508 154.939C233.32 154.9 233.14 154.827 232.978 154.725C232.741 154.569 232.556 154.35 232.447 154.097C232.338 153.844 232.309 153.567 232.365 153.302L237.922 126.425C237.976 126.16 238.112 125.917 238.313 125.728C238.513 125.539 238.77 125.412 239.05 125.362C239.332 125.32 239.623 125.354 239.889 125.462C240.155 125.57 240.386 125.746 240.553 125.971L251.983 142.347C252.197 142.657 252.276 143.032 252.201 143.391C252.127 143.749 251.906 144.062 251.587 144.262Z" fill="#111111"/>
<path d="M298.587 682.728L281.6 693.228C281.277 693.418 280.886 693.482 280.508 693.405C280.32 693.366 280.14 693.293 279.978 693.191C279.741 693.034 279.556 692.816 279.447 692.563C279.338 692.309 279.309 692.033 279.365 691.768L284.922 664.891C284.976 664.626 285.112 664.383 285.313 664.194C285.513 664.005 285.77 663.877 286.05 663.828C286.332 663.786 286.623 663.82 286.889 663.928C287.155 664.036 287.386 664.212 287.553 664.437L298.983 680.813C299.197 681.123 299.276 681.498 299.201 681.856C299.127 682.215 298.906 682.528 298.587 682.728Z" fill="#111111"/>
<path d="M207.268 675.376L213.32 688.209C213.439 688.448 213.647 688.637 213.902 688.738C214.029 688.787 214.165 688.813 214.3 688.815C214.502 688.814 214.697 688.755 214.86 688.647C215.023 688.538 215.147 688.384 215.217 688.205L222.316 670.043C222.386 669.864 222.399 669.667 222.353 669.477C222.307 669.287 222.203 669.111 222.056 668.974C221.904 668.839 221.717 668.747 221.517 668.708C221.317 668.669 221.111 668.685 220.924 668.754L207.774 674.082C207.526 674.183 207.334 674.376 207.24 674.619C207.145 674.861 207.155 675.133 207.268 675.376Z" fill="#111111"/>
<path d="M446.722 622.493L456.013 642.196C456.196 642.562 456.516 642.853 456.906 643.007C457.102 643.083 457.31 643.123 457.518 643.126C457.828 643.124 458.127 643.034 458.378 642.867C458.628 642.701 458.819 642.465 458.925 642.189L469.824 614.307C469.932 614.032 469.952 613.729 469.881 613.437C469.81 613.145 469.652 612.876 469.425 612.664C469.192 612.458 468.905 612.316 468.598 612.256C468.29 612.197 467.975 612.221 467.688 612.327L447.499 620.507C447.119 620.663 446.824 620.959 446.678 621.331C446.533 621.703 446.549 622.121 446.722 622.493Z" fill="#111111"/>
<path d="M550.149 81.9172L531.62 93.3709C531.267 93.5784 530.841 93.6475 530.429 93.564C530.224 93.5207 530.028 93.4413 529.851 93.3299C529.592 93.1595 529.391 92.9211 529.272 92.6449C529.153 92.3687 529.121 92.067 529.182 91.7778L535.244 62.4612C535.303 62.1717 535.451 61.907 535.67 61.7006C535.889 61.4943 536.168 61.3555 536.474 61.3016C536.782 61.2552 537.099 61.2929 537.39 61.4105C537.68 61.528 537.931 61.7204 538.114 61.9656L550.581 79.8284C550.815 80.1665 550.9 80.5756 550.82 80.9668C550.739 81.3579 550.498 81.6995 550.149 81.9172Z" fill="#111111"/>
<path d="M427.917 66.4932L437.208 86.1958C437.391 86.5622 437.71 86.8526 438.101 87.0071C438.297 87.0828 438.505 87.123 438.713 87.1258C439.023 87.124 439.322 87.0341 439.573 86.8674C439.823 86.7007 440.014 86.4647 440.12 86.1891L451.019 58.3068C451.127 58.0319 451.147 57.7292 451.076 57.437C451.005 57.1447 450.846 56.8758 450.62 56.6643C450.387 56.4575 450.1 56.316 449.793 56.2563C449.485 56.1965 449.17 56.221 448.883 56.3268L428.694 64.5066C428.313 64.6627 428.019 64.959 427.873 65.331C427.728 65.703 427.744 66.1207 427.917 66.4932Z" fill="#111111"/>
<path d="M379.583 153.61L399.275 162.922C399.649 163.089 400.081 163.11 400.481 162.981C400.68 162.915 400.866 162.814 401.029 162.684C401.267 162.486 401.441 162.226 401.528 161.938C401.616 161.651 401.613 161.347 401.52 161.067L392.221 132.611C392.131 132.33 391.954 132.083 391.713 131.902C391.473 131.722 391.179 131.615 390.87 131.596C390.559 131.584 390.247 131.657 389.972 131.806C389.697 131.955 389.469 132.175 389.314 132.439L378.92 151.582C378.726 151.944 378.686 152.361 378.811 152.74C378.935 153.12 379.212 153.432 379.583 153.61Z" fill="#111111"/>
<path d="M167.638 399.06C171.668 393.799 179.2 392.801 184.461 396.832L228.121 430.28C233.382 434.311 234.38 441.843 230.349 447.104L206.631 478.063C202.601 483.324 195.068 484.321 189.807 480.291L146.147 446.842C140.887 442.812 139.889 435.28 143.92 430.019L167.638 399.06Z" stroke="#2B323E" stroke-width="2.5"/>
<path d="M318.271 535.917L299.742 547.371C299.389 547.578 298.962 547.647 298.55 547.564C298.345 547.52 298.149 547.441 297.973 547.33C297.714 547.159 297.512 546.921 297.393 546.644C297.274 546.368 297.243 546.067 297.304 545.777L303.365 516.461C303.424 516.171 303.572 515.907 303.791 515.7C304.01 515.494 304.29 515.355 304.595 515.301C304.903 515.255 305.221 515.293 305.511 515.41C305.801 515.528 306.052 515.72 306.235 515.965L318.703 533.828C318.936 534.166 319.022 534.575 318.941 534.966C318.86 535.358 318.619 535.699 318.271 535.917Z" stroke="#2B323E" stroke-width="2.5"/>
<path d="M196.038 520.493L205.329 540.195C205.512 540.562 205.832 540.852 206.223 541.007C206.419 541.082 206.626 541.123 206.835 541.125C207.145 541.124 207.444 541.034 207.694 540.867C207.944 540.7 208.135 540.464 208.241 540.189L219.14 512.306C219.248 512.031 219.268 511.729 219.198 511.437C219.127 511.144 218.968 510.875 218.741 510.664C218.508 510.457 218.221 510.316 217.914 510.256C217.607 510.196 217.291 510.221 217.004 510.326L196.815 518.506C196.435 518.662 196.14 518.959 195.995 519.331C195.849 519.703 195.865 520.12 196.038 520.493Z" stroke="#2B323E" stroke-width="2.5"/>
<path d="M214.637 937.526C218.668 932.265 226.2 931.268 231.461 935.298L275.121 968.747C280.382 972.777 281.379 980.309 277.349 985.57L253.631 1016.53C249.6 1021.79 242.068 1022.79 236.807 1018.76L193.147 985.308C187.886 981.278 186.889 973.746 190.919 968.485L214.637 937.526Z" stroke="#2B323E" stroke-width="2.5"/>
<path d="M365.27 1074.38L346.741 1085.84C346.388 1086.04 345.962 1086.11 345.55 1086.03C345.345 1085.99 345.149 1085.91 344.972 1085.8C344.713 1085.63 344.512 1085.39 344.393 1085.11C344.274 1084.83 344.243 1084.53 344.303 1084.24L350.365 1054.93C350.424 1054.64 350.572 1054.37 350.791 1054.17C351.01 1053.96 351.29 1053.82 351.595 1053.77C351.903 1053.72 352.22 1053.76 352.511 1053.88C352.801 1053.99 353.052 1054.19 353.235 1054.43L365.702 1072.29C365.936 1072.63 366.022 1073.04 365.941 1073.43C365.86 1073.82 365.619 1074.17 365.27 1074.38Z" stroke="#2B323E" stroke-width="2.5"/>
<path d="M393.025 1214.43L383.999 1194.61C383.838 1194.23 383.823 1193.8 383.958 1193.4C384.027 1193.2 384.131 1193.02 384.263 1192.86C384.465 1192.62 384.727 1192.45 385.016 1192.37C385.305 1192.29 385.608 1192.29 385.887 1192.39L414.205 1202.1C414.485 1202.19 414.729 1202.38 414.906 1202.62C415.083 1202.86 415.186 1203.16 415.2 1203.47C415.208 1203.78 415.13 1204.09 414.977 1204.36C414.824 1204.63 414.601 1204.86 414.335 1205.01L395.042 1215.12C394.677 1215.31 394.261 1215.35 393.883 1215.22C393.505 1215.09 393.197 1214.81 393.025 1214.43Z" stroke="#2B323E" stroke-width="2.5"/>
<path d="M243.038 1058.96L252.329 1078.66C252.512 1079.03 252.832 1079.32 253.222 1079.47C253.418 1079.55 253.626 1079.59 253.834 1079.59C254.144 1079.59 254.443 1079.5 254.694 1079.33C254.944 1079.17 255.135 1078.93 255.241 1078.66L266.14 1050.77C266.248 1050.5 266.268 1050.2 266.197 1049.9C266.126 1049.61 265.968 1049.34 265.741 1049.13C265.508 1048.92 265.221 1048.78 264.914 1048.72C264.606 1048.66 264.291 1048.69 264.004 1048.79L243.815 1056.97C243.435 1057.13 243.14 1057.42 242.994 1057.8C242.849 1058.17 242.865 1058.59 243.038 1058.96Z" stroke="#2B323E" stroke-width="2.5"/>
<path d="M207.01 578.526C202.979 573.265 195.447 572.268 190.186 576.298L146.526 609.747C141.265 613.777 140.268 621.309 144.298 626.57L168.016 657.529C172.047 662.79 179.579 663.788 184.84 659.757L228.5 626.309C233.761 622.278 234.758 614.746 230.728 609.485L207.01 578.526Z" stroke="#2B323E" stroke-width="2.5"/>
<path d="M190.745 605.487L192.212 613.843C192.266 614.151 192.461 614.416 192.739 614.559L201.126 618.872C201.964 619.303 201.795 620.547 200.873 620.74L179.712 625.164C178.875 625.339 178.218 624.45 178.633 623.701L188.885 605.175C189.342 604.35 190.582 604.558 190.745 605.487Z" stroke="#2B323E" stroke-width="2.5"/>
<path d="M329.638 353.059C333.668 347.798 341.201 346.801 346.462 350.831L390.122 384.28C395.383 388.31 396.38 395.843 392.349 401.104L368.631 432.062C364.601 437.323 357.069 438.321 351.808 434.29L308.148 400.842C302.887 396.811 301.889 389.279 305.92 384.018L329.638 353.059Z" stroke="#2B323E" stroke-width="2.5"/>
<path d="M345.902 380.02L344.436 388.376C344.382 388.684 344.187 388.949 343.908 389.092L335.522 393.405C334.684 393.836 334.852 395.081 335.774 395.273L356.935 399.697C357.773 399.872 358.429 398.983 358.015 398.234L347.762 379.709C347.305 378.883 346.065 379.091 345.902 380.02Z" stroke="#2B323E" stroke-width="2.5"/>
<path d="M376.638 891.525C380.668 886.264 388.201 885.267 393.462 889.297L437.122 922.746C442.382 926.776 443.38 934.308 439.349 939.569L415.631 970.528C411.601 975.789 404.069 976.787 398.808 972.756L355.148 939.308C349.887 935.277 348.889 927.745 352.92 922.484L376.638 891.525Z" stroke="#2B323E" stroke-width="2.5"/>
<path d="M392.902 918.486L391.436 926.842C391.382 927.15 391.187 927.415 390.908 927.558L382.522 931.871C381.684 932.302 381.852 933.546 382.774 933.739L403.935 938.163C404.773 938.338 405.429 937.449 405.015 936.7L394.762 918.174C394.305 917.349 393.065 917.557 392.902 918.486Z" stroke="#2B323E" stroke-width="2.5"/>
<path d="M40.1878 518.059C36.1573 512.798 28.6251 511.801 23.3641 515.831L-20.2958 549.28C-25.5568 553.31 -26.5542 560.843 -22.5237 566.104L1.1944 597.062C5.22491 602.323 12.7571 603.321 18.0181 599.29L61.678 565.842C66.939 561.811 67.9364 554.279 63.9059 549.018L40.1878 518.059Z" stroke="#2B323E" stroke-width="2.5"/>
<path d="M23.9236 545.02L25.3897 553.376C25.4438 553.684 25.6391 553.949 25.9174 554.093L34.304 558.405C35.1418 558.836 34.9735 560.081 34.0513 560.273L12.8904 564.697C12.0528 564.872 11.3965 563.983 11.8108 563.234L22.0637 544.709C22.5203 543.883 23.7606 544.091 23.9236 545.02Z" stroke="#2B323E" stroke-width="2.5"/>
<path d="M167.638 399.06C171.668 393.799 179.2 392.801 184.461 396.832L228.121 430.28C233.382 434.311 234.38 441.843 230.349 447.104L206.631 478.063C202.601 483.324 195.068 484.321 189.807 480.291L146.147 446.842C140.887 442.812 139.889 435.28 143.92 430.019L167.638 399.06Z" stroke="#2B323E" stroke-width="2.5"/>
<path d="M214.638 937.525C218.668 932.264 226.201 931.267 231.462 935.297L275.122 968.746C280.383 972.776 281.38 980.309 277.349 985.569L253.631 1016.53C249.601 1021.79 242.069 1022.79 236.808 1018.76L193.148 985.307C187.887 981.277 186.889 973.745 190.92 968.484L214.638 937.525Z" stroke="#2B323E" stroke-width="2.5"/>
<path d="M360.016 671.091L353.355 656.459C353.236 656.181 353.225 655.863 353.324 655.569C353.375 655.423 353.452 655.287 353.55 655.168C353.698 654.994 353.892 654.869 354.105 654.807C354.318 654.746 354.542 654.751 354.748 654.823L375.648 661.99C375.855 662.06 376.035 662.193 376.165 662.372C376.296 662.552 376.372 662.769 376.383 662.998C376.388 663.228 376.331 663.457 376.218 663.658C376.105 663.86 375.94 664.026 375.744 664.137L361.505 671.602C361.236 671.742 360.928 671.766 360.649 671.671C360.37 671.575 360.143 671.367 360.016 671.091Z" stroke="#2B323E" stroke-width="2.5"/>
<path d="M395.747 663.886C398.096 657.689 394.976 650.761 388.779 648.412L356.701 636.253C350.504 633.904 343.576 637.024 341.227 643.221L333.253 664.257C330.904 670.455 334.024 677.383 340.221 679.732L372.3 691.89C378.497 694.239 385.425 691.12 387.774 684.922L395.747 663.886Z" stroke="#2B323E" stroke-width="2.5"/>
<path d="M329.638 353.059C333.668 347.798 341.201 346.801 346.462 350.831L390.122 384.28C395.383 388.31 396.38 395.843 392.349 401.104L368.631 432.062C364.601 437.323 357.069 438.321 351.808 434.29L308.148 400.842C302.887 396.811 301.889 389.279 305.92 384.018L329.638 353.059Z" stroke="#2B323E" stroke-width="2.5"/>
<path d="M345.902 380.02L344.436 388.376C344.382 388.684 344.187 388.949 343.908 389.092L335.522 393.405C334.684 393.836 334.852 395.081 335.774 395.273L356.935 399.697C357.773 399.872 358.429 398.983 358.015 398.234L347.762 379.709C347.305 378.883 346.065 379.091 345.902 380.02Z" stroke="#2B323E" stroke-width="2.5"/>
<path d="M376.638 891.525C380.668 886.264 388.201 885.267 393.462 889.297L437.122 922.746C442.382 926.776 443.38 934.308 439.349 939.569L415.631 970.528C411.601 975.789 404.069 976.787 398.808 972.756L355.148 939.308C349.887 935.277 348.889 927.745 352.92 922.484L376.638 891.525Z" stroke="#2B323E" stroke-width="2.5"/>
<path d="M392.902 918.486L391.436 926.842C391.382 927.15 391.187 927.415 390.908 927.558L382.522 931.871C381.684 932.302 381.852 933.546 382.774 933.739L403.935 938.163C404.773 938.338 405.429 937.449 405.015 936.7L394.762 918.174C394.305 917.349 393.065 917.557 392.902 918.486Z" stroke="#2B323E" stroke-width="2.5"/>
<path d="M40.1878 518.059C36.1573 512.798 28.6251 511.801 23.3641 515.831L-20.2958 549.28C-25.5568 553.31 -26.5542 560.843 -22.5237 566.104L1.1944 597.062C5.22491 602.323 12.7571 603.321 18.0181 599.29L61.678 565.842C66.939 561.811 67.9364 554.279 63.9059 549.018L40.1878 518.059Z" stroke="#2B323E" stroke-width="2.5"/>
<path d="M23.9236 545.02L25.3897 553.376C25.4438 553.684 25.6391 553.949 25.9174 554.093L34.304 558.405C35.1418 558.836 34.9735 560.081 34.0513 560.273L12.8904 564.697C12.0528 564.872 11.3965 563.983 11.8108 563.234L22.0637 544.709C22.5203 543.883 23.7606 544.091 23.9236 545.02Z" stroke="#2B323E" stroke-width="2.5"/>
<path d="M167.638 399.06C171.668 393.799 179.2 392.801 184.461 396.832L228.121 430.28C233.382 434.311 234.38 441.843 230.349 447.104L206.631 478.063C202.601 483.324 195.068 484.321 189.807 480.291L146.147 446.842C140.887 442.812 139.889 435.28 143.92 430.019L167.638 399.06Z" stroke="#2B323E" stroke-width="2.5"/>
<path d="M214.638 937.525C218.668 932.264 226.201 931.267 231.462 935.297L275.122 968.746C280.383 972.776 281.38 980.309 277.349 985.569L253.631 1016.53C249.601 1021.79 242.069 1022.79 236.808 1018.76L193.148 985.307C187.887 981.277 186.889 973.745 190.92 968.484L214.638 937.525Z" stroke="#2B323E" stroke-width="2.5"/>
<path d="M402.673 554.876C399.872 548.87 392.733 546.27 386.726 549.07L336.877 572.309C330.87 575.109 328.27 582.249 331.071 588.256L347.549 623.603C350.349 629.61 357.489 632.21 363.496 629.409L413.345 606.171C419.352 603.37 421.951 596.231 419.151 590.224L402.673 554.876Z" stroke="#2B323E" stroke-width="2.5"/>
<path d="M380.973 577.692L380.602 586.168C380.588 586.48 380.722 586.781 380.962 586.981L388.221 593.002C388.946 593.604 388.513 594.782 387.571 594.772L365.954 594.525C365.098 594.515 364.649 593.505 365.215 592.863L379.225 576.987C379.848 576.28 381.015 576.75 380.973 577.692Z" stroke="#2B323E" stroke-width="2.5"/>
<path d="M329.638 353.059C333.668 347.798 341.201 346.801 346.462 350.831L390.122 384.28C395.383 388.31 396.38 395.843 392.349 401.104L368.631 432.062C364.601 437.323 357.069 438.321 351.808 434.29L308.148 400.842C302.887 396.811 301.889 389.279 305.92 384.018L329.638 353.059Z" stroke="#2B323E" stroke-width="2.5"/>
<path d="M345.902 380.02L344.436 388.376C344.382 388.684 344.187 388.949 343.908 389.092L335.522 393.405C334.684 393.836 334.852 395.081 335.774 395.273L356.935 399.697C357.773 399.872 358.429 398.983 358.015 398.234L347.762 379.709C347.305 378.883 346.065 379.091 345.902 380.02Z" stroke="#2B323E" stroke-width="2.5"/>
<path d="M376.638 891.525C380.668 886.264 388.201 885.267 393.462 889.297L437.122 922.746C442.382 926.776 443.38 934.308 439.349 939.569L415.631 970.528C411.601 975.789 404.069 976.787 398.808 972.756L355.148 939.308C349.887 935.277 348.889 927.745 352.92 922.484L376.638 891.525Z" stroke="#2B323E" stroke-width="2.5"/>
<path d="M392.902 918.486L391.436 926.842C391.382 927.15 391.187 927.415 390.908 927.558L382.522 931.871C381.684 932.302 381.852 933.546 382.774 933.739L403.935 938.163C404.773 938.338 405.429 937.449 405.015 936.7L394.762 918.174C394.305 917.349 393.065 917.557 392.902 918.486Z" stroke="#2B323E" stroke-width="2.5"/>
<path d="M40.1878 518.059C36.1573 512.798 28.6251 511.801 23.3641 515.831L-20.2958 549.28C-25.5568 553.31 -26.5542 560.843 -22.5237 566.104L1.1944 597.062C5.22491 602.323 12.7571 603.321 18.0181 599.29L61.678 565.842C66.939 561.811 67.9364 554.279 63.9059 549.018L40.1878 518.059Z" stroke="#2B323E" stroke-width="2.5"/>
<path d="M23.9236 545.02L25.3897 553.376C25.4438 553.684 25.6391 553.949 25.9174 554.093L34.304 558.405C35.1418 558.836 34.9735 560.081 34.0513 560.273L12.8904 564.697C12.0528 564.872 11.3965 563.983 11.8108 563.234L22.0637 544.709C22.5203 543.883 23.7606 544.091 23.9236 545.02Z" stroke="#2B323E" stroke-width="2.5"/>
<path d="M167.638 399.06C171.668 393.799 179.2 392.801 184.461 396.832L228.121 430.28C233.382 434.311 234.38 441.843 230.349 447.104L206.631 478.063C202.601 483.324 195.068 484.321 189.807 480.291L146.147 446.842C140.887 442.812 139.889 435.28 143.92 430.019L167.638 399.06Z" stroke="#2B323E" stroke-width="2.5"/>
<path d="M173.65 439.045L182.969 442.483C183.229 442.578 183.437 442.777 183.544 443.032L187.829 453.179C188.196 454.049 189.454 453.972 189.712 453.063L195.895 431.276C196.115 430.501 195.374 429.797 194.611 430.056L173.675 437.16C172.783 437.463 172.766 438.719 173.65 439.045Z" stroke="#2B323E" stroke-width="2.5"/>
<path d="M214.638 937.525C218.668 932.264 226.201 931.267 231.462 935.297L275.122 968.746C280.383 972.776 281.38 980.309 277.349 985.569L253.631 1016.53C249.601 1021.79 242.069 1022.79 236.808 1018.76L193.148 985.307C187.887 981.277 186.889 973.745 190.92 968.484L214.638 937.525Z" stroke="#2B323E" stroke-width="2.5"/>
<path d="M220.65 977.511L229.969 980.948C230.229 981.044 230.437 981.243 230.544 981.498L234.829 991.645C235.196 992.515 236.454 992.438 236.712 991.529L242.895 969.742C243.115 968.967 242.374 968.263 241.611 968.522L220.675 975.626C219.783 975.929 219.766 977.185 220.65 977.511Z" stroke="#2B323E" stroke-width="2.5"/>
<path d="M167.01 665.526C162.979 660.265 155.447 659.268 150.186 663.298L106.526 696.747C101.265 700.777 100.268 708.309 104.298 713.57L128.016 744.529C132.047 749.79 139.579 750.788 144.84 746.757L188.5 713.309C193.761 709.278 194.758 701.746 190.728 696.485L167.01 665.526Z" stroke="#2B323E" stroke-width="2.5"/>
<path d="M150.745 692.487L152.212 700.843C152.266 701.151 152.461 701.416 152.739 701.559L161.126 705.872C161.964 706.303 161.795 707.547 160.873 707.74L139.712 712.164C138.875 712.339 138.218 711.45 138.633 710.701L148.885 692.175C149.342 691.35 150.582 691.558 150.745 692.487Z" stroke="#2B323E" stroke-width="2.5"/>
<path d="M329.638 353.059C333.668 347.798 341.201 346.801 346.462 350.831L390.122 384.28C395.383 388.31 396.38 395.843 392.349 401.104L368.631 432.062C364.601 437.323 357.069 438.321 351.808 434.29L308.148 400.842C302.887 396.811 301.889 389.279 305.92 384.018L329.638 353.059Z" stroke="#2B323E" stroke-width="2.5"/>
<path d="M345.902 380.02L344.436 388.376C344.382 388.684 344.187 388.949 343.908 389.092L335.522 393.405C334.684 393.836 334.852 395.081 335.774 395.273L356.935 399.697C357.773 399.872 358.429 398.983 358.015 398.234L347.762 379.709C347.305 378.883 346.065 379.091 345.902 380.02Z" stroke="#2B323E" stroke-width="2.5"/>
<path d="M376.638 891.525C380.668 886.264 388.201 885.267 393.462 889.297L437.122 922.746C442.382 926.776 443.38 934.308 439.349 939.569L415.631 970.528C411.601 975.789 404.069 976.787 398.808 972.756L355.148 939.308C349.887 935.277 348.889 927.745 352.92 922.484L376.638 891.525Z" stroke="#2B323E" stroke-width="2.5"/>
<path d="M392.902 918.486L391.436 926.842C391.382 927.15 391.187 927.415 390.908 927.558L382.522 931.871C381.684 932.302 381.852 933.546 382.774 933.739L403.935 938.163C404.773 938.338 405.429 937.449 405.015 936.7L394.762 918.174C394.305 917.349 393.065 917.557 392.902 918.486Z" stroke="#2B323E" stroke-width="2.5"/>
<path d="M40.1878 518.059C36.1573 512.798 28.6251 511.801 23.3641 515.831L-20.2958 549.28C-25.5568 553.31 -26.5542 560.843 -22.5237 566.104L1.1944 597.062C5.22491 602.323 12.7571 603.321 18.0181 599.29L61.678 565.842C66.939 561.811 67.9364 554.279 63.9059 549.018L40.1878 518.059Z" stroke="#2B323E" stroke-width="2.5"/>
<path d="M23.9236 545.02L25.3897 553.376C25.4438 553.684 25.6391 553.949 25.9174 554.093L34.304 558.405C35.1418 558.836 34.9735 560.081 34.0513 560.273L12.8904 564.697C12.0528 564.872 11.3965 563.983 11.8108 563.234L22.0637 544.709C22.5203 543.883 23.7606 544.091 23.9236 545.02Z" stroke="#2B323E" stroke-width="2.5"/>
<path d="M49.1529 413.533C48.5163 406.936 53.348 401.072 59.9448 400.435L114.69 395.153C121.287 394.516 127.151 399.348 127.788 405.944L131.534 444.764C132.17 451.361 127.339 457.225 120.742 457.861L65.9961 463.144C59.3993 463.781 53.5355 458.949 52.899 452.352L49.1529 413.533Z" stroke="#2B323E" stroke-width="2.5"/>
<path d="M79.4303 422.175L84.0528 429.289C84.2233 429.551 84.2612 429.878 84.1551 430.173L80.9579 439.045C80.6385 439.931 81.6099 440.727 82.4161 440.239L100.915 429.053C101.648 428.611 101.522 427.512 100.708 427.247L80.579 420.679C79.6824 420.387 78.9164 421.384 79.4303 422.175Z" stroke="#2B323E" stroke-width="2.5"/>
<path d="M96.1529 951.998C95.5163 945.402 100.348 939.538 106.945 938.901L161.69 933.618C168.287 932.982 174.151 937.813 174.788 944.41L178.534 983.23C179.17 989.827 174.339 995.69 167.742 996.327L112.996 1001.61C106.399 1002.25 100.536 997.415 99.899 990.818L96.1529 951.998Z" stroke="#2B323E" stroke-width="2.5"/>
<path d="M126.43 960.641L131.053 967.755C131.223 968.017 131.261 968.344 131.155 968.638L127.958 977.51C127.638 978.397 128.61 979.193 129.416 978.705L147.915 967.519C148.648 967.076 148.522 965.978 147.708 965.713L127.579 959.145C126.682 958.853 125.916 959.85 126.43 960.641Z" stroke="#2B323E" stroke-width="2.5"/>
<path d="M320.673 578.533C321.309 571.936 316.478 566.072 309.881 565.435L255.135 560.153C248.538 559.516 242.675 564.348 242.038 570.944L238.292 609.764C237.655 616.361 242.487 622.225 249.084 622.861L303.83 628.144C310.426 628.781 316.29 623.949 316.927 617.352L320.673 578.533Z" stroke="#2B323E" stroke-width="2.5"/>
<path d="M290.395 587.175L285.773 594.289C285.602 594.551 285.565 594.878 285.671 595.173L288.868 604.045C289.187 604.931 288.216 605.727 287.41 605.24L268.91 594.053C268.178 593.611 268.304 592.512 269.118 592.247L289.247 585.68C290.143 585.387 290.909 586.384 290.395 587.175Z" stroke="#2B323E" stroke-width="2.5"/>
<path d="M211.153 367.533C210.516 360.936 215.348 355.072 221.945 354.435L276.69 349.153C283.287 348.516 289.151 353.348 289.788 359.944L293.534 398.764C294.17 405.361 289.339 411.225 282.742 411.861L227.996 417.144C221.399 417.781 215.536 412.949 214.899 406.352L211.153 367.533Z" stroke="#2B323E" stroke-width="2.5"/>
<path d="M245.361 394.988L252.517 390.431C252.781 390.263 253.108 390.229 253.401 390.337L262.244 393.616C263.127 393.944 263.932 392.98 263.452 392.169L252.437 373.567C252.001 372.831 250.902 372.947 250.629 373.758L243.876 393.826C243.575 394.719 244.565 395.495 245.361 394.988Z" stroke="#2B323E" stroke-width="2.5"/>
<path d="M258.153 905.998C257.516 899.402 262.348 893.538 268.945 892.901L323.69 887.618C330.287 886.982 336.151 891.813 336.788 898.41L340.534 937.23C341.17 943.827 336.339 949.691 329.742 950.327L274.996 955.61C268.399 956.247 262.536 951.415 261.899 944.818L258.153 905.998Z" stroke="#2B323E" stroke-width="2.5"/>
<path d="M292.361 933.454L299.517 928.897C299.781 928.729 300.108 928.694 300.401 928.803L309.244 932.082C310.127 932.41 310.932 931.446 310.452 930.635L299.437 912.033C299.001 911.297 297.902 911.413 297.629 912.224L290.876 932.291C290.575 933.185 291.565 933.96 292.361 933.454Z" stroke="#2B323E" stroke-width="2.5"/>
<path d="M151.534 561.533C152.17 554.936 147.339 549.072 140.742 548.435L85.9961 543.153C79.3993 542.516 73.5355 547.348 72.8989 553.944L69.1529 592.764C68.5163 599.361 73.348 605.225 79.9448 605.861L134.69 611.144C141.287 611.781 147.151 606.949 147.788 600.352L151.534 561.533Z" stroke="#2B323E" stroke-width="2.5"/>
<path d="M116.404 589.546L109.63 584.44C109.38 584.251 109.056 584.191 108.755 584.276L99.682 586.848C98.7756 587.104 98.0493 586.08 98.5918 585.31L111.039 567.634C111.532 566.935 112.619 567.137 112.827 567.967L117.976 588.505C118.206 589.419 117.157 590.114 116.404 589.546Z" stroke="#2B323E" stroke-width="2.5"/>
<path d="M273.109 503.712C274.552 497.244 280.966 493.17 287.434 494.614L341.114 506.594C347.582 508.037 351.655 514.451 350.212 520.919L341.717 558.983C340.273 565.451 333.86 569.525 327.391 568.081L273.712 556.101C267.244 554.658 263.17 548.244 264.614 541.776L273.109 503.712Z" stroke="#2B323E" stroke-width="2.5"/>
<path d="M346.109 452.712C347.552 446.244 353.966 442.17 360.434 443.614L414.114 455.594C420.582 457.037 424.655 463.451 423.212 469.919L414.717 507.983C413.273 514.451 406.86 518.525 400.391 517.081L346.712 505.101C340.244 503.658 336.17 497.244 337.614 490.776L346.109 452.712Z" stroke="#2B323E" stroke-width="2.5"/>
<path d="M372.205 470.33L374.39 478.528C374.47 478.83 374.405 479.153 374.212 479.399L368.418 486.84C367.839 487.583 368.515 488.641 369.433 488.428L390.492 483.541C391.325 483.347 391.547 482.264 390.856 481.759L373.761 469.265C373 468.709 371.962 469.419 372.205 470.33Z" stroke="#2B323E" stroke-width="2.5"/>
<path d="M393.109 991.178C394.552 984.71 400.966 980.636 407.434 982.08L461.114 994.06C467.582 995.503 471.655 1001.92 470.212 1008.39L461.717 1046.45C460.273 1052.92 453.86 1056.99 447.391 1055.55L393.712 1043.57C387.244 1042.12 383.17 1035.71 384.614 1029.24L393.109 991.178Z" stroke="#2B323E" stroke-width="2.5"/>
<path d="M419.205 1008.8L421.39 1016.99C421.47 1017.3 421.405 1017.62 421.212 1017.87L415.418 1025.31C414.839 1026.05 415.515 1027.11 416.433 1026.89L437.492 1022.01C438.325 1021.81 438.547 1020.73 437.856 1020.22L420.761 1007.73C420 1007.17 418.962 1007.88 419.205 1008.8Z" stroke="#2B323E" stroke-width="2.5"/>
<path d="M35.9568 610.712C34.5133 604.244 28.0995 600.17 21.6312 601.614L-26.2881 612.308C-32.7563 613.752 -36.8297 620.166 -35.3861 626.634L-27.9165 660.104C-26.4729 666.572 -20.0591 670.646 -13.5908 669.202L34.3284 658.508C40.7967 657.064 44.87 650.65 43.4265 644.182L35.9568 610.712Z" stroke="#2B323E" stroke-width="2.5"/>
<path d="M11.5605 626.343L9.60297 633.688C9.52238 633.991 9.58799 634.313 9.78027 634.56L14.9894 641.249C15.5683 641.992 14.8921 643.051 13.9743 642.838L-5.14676 638.399C-5.98034 638.206 -6.20161 637.123 -5.51073 636.618L10.0042 625.278C10.7655 624.722 11.8034 625.432 11.5605 626.343Z" stroke="#2B323E" stroke-width="2.5"/>
<path d="M75.8311 490.592C73.7154 484.311 77.0917 477.505 83.3724 475.389L135.494 457.831C141.775 455.715 148.582 459.091 150.697 465.372L163.148 502.331C165.263 508.612 161.887 515.419 155.607 517.534L103.484 535.092C97.2038 537.208 90.3972 533.832 88.2815 527.551L75.8311 490.592Z" stroke="#2B323E" stroke-width="2.5"/>
<path d="M133.322 500.266L126.716 494.944C126.472 494.747 126.335 494.448 126.344 494.135L126.622 484.709C126.65 483.767 125.479 483.313 124.865 484.027L110.763 500.413C110.205 501.062 110.666 502.066 111.522 502.065L132.696 502.045C133.639 502.044 134.057 500.858 133.322 500.266Z" stroke="#2B323E" stroke-width="2.5"/>
<path d="M-29.2862 440.983C-28.9335 434.365 -23.2827 429.286 -16.6647 429.639L38.2574 432.565C44.8754 432.918 49.9545 438.569 49.6019 445.187L47.5268 484.131C47.1741 490.749 41.5233 495.829 34.9053 495.476L-20.0168 492.549C-26.6348 492.197 -31.7139 486.546 -31.3613 479.928L-29.2862 440.983Z" stroke="#2B323E" stroke-width="2.5"/>
<path d="M-5.38351 472.826L2.4575 469.587C2.74673 469.467 3.07522 469.49 3.34516 469.648L11.4801 474.419C12.2928 474.895 13.2534 474.086 12.9221 473.204L5.31956 452.967C5.01863 452.166 3.91597 452.088 3.5058 452.839L-6.64296 471.422C-7.09498 472.25 -6.25513 473.186 -5.38351 472.826Z" stroke="#2B323E" stroke-width="2.5"/>
<path d="M241.831 452.592C239.715 446.311 243.092 439.505 249.372 437.389L301.494 419.831C307.775 417.715 314.582 421.091 316.697 427.372L329.148 464.331C331.263 470.612 327.887 477.419 321.607 479.534L269.484 497.092C263.204 499.208 256.397 495.832 254.281 489.551L241.831 452.592Z" stroke="#2B323E" stroke-width="2.5"/>
<path d="M273.28 454.144L279.395 460.025C279.62 460.242 279.731 460.552 279.695 460.862L278.592 470.228C278.482 471.164 279.609 471.719 280.283 471.061L295.765 455.972C296.378 455.375 296.006 454.334 295.153 454.26L274.059 452.427C273.12 452.346 272.6 453.491 273.28 454.144Z" stroke="#2B323E" stroke-width="2.5"/>
<path d="M288.831 991.058C286.715 984.777 290.092 977.971 296.372 975.855L348.494 958.297C354.775 956.181 361.582 959.557 363.697 965.838L376.148 1002.8C378.263 1009.08 374.887 1015.88 368.607 1018L316.484 1035.56C310.204 1037.67 303.397 1034.3 301.281 1028.02L288.831 991.058Z" stroke="#2B323E" stroke-width="2.5"/>
<path d="M320.28 992.61L326.395 998.491C326.62 998.708 326.731 999.017 326.695 999.328L325.592 1008.69C325.482 1009.63 326.609 1010.18 327.283 1009.53L342.765 994.438C343.378 993.841 343.006 992.8 342.153 992.726L321.059 990.893C320.12 990.812 319.6 991.957 320.28 992.61Z" stroke="#2B323E" stroke-width="2.5"/>
<path d="M131.148 642.592C133.264 636.311 129.887 629.505 123.607 627.389L71.4846 609.831C65.204 607.715 58.3974 611.091 56.2817 617.372L43.8313 654.331C41.7156 660.612 45.0919 667.419 51.3725 669.534L103.495 687.092C109.775 689.208 116.582 685.832 118.698 679.551L131.148 642.592Z" stroke="#2B323E" stroke-width="2.5"/>
<path d="M99.6995 644.144L93.5844 650.025C93.3588 650.242 93.2478 650.552 93.2844 650.862L94.3867 660.228C94.4969 661.164 93.3703 661.719 92.6956 661.061L77.2143 645.972C76.6015 645.375 76.9733 644.334 77.8258 644.26L98.9198 642.427C99.8594 642.346 100.379 643.491 99.6995 644.144Z" stroke="#2B323E" stroke-width="2.5"/>
<path d="M117.367 354.925C114.955 348.752 118.004 341.793 124.178 339.381L175.407 319.367C181.58 316.955 188.539 320.004 190.951 326.177L205.143 362.503C207.555 368.676 204.505 375.636 198.332 378.047L147.103 398.062C140.93 400.474 133.971 397.425 131.559 391.252L117.367 354.925Z" stroke="#2B323E" stroke-width="2.5"/>
<path d="M174.985 362.903L168.55 357.374C168.313 357.17 168.185 356.867 168.204 356.555L168.78 347.142C168.837 346.202 167.681 345.711 167.044 346.405L152.433 362.338C151.855 362.969 152.284 363.987 153.139 364.013L174.303 364.661C175.246 364.69 175.701 363.517 174.985 362.903Z" stroke="#2B323E" stroke-width="2.5"/>
<path d="M164.367 893.391C161.955 887.218 165.004 880.259 171.178 877.847L222.407 857.833C228.58 855.421 235.539 858.47 237.951 864.643L252.143 900.969C254.555 907.142 251.505 914.102 245.332 916.513L194.103 936.528C187.93 938.94 180.971 935.89 178.559 929.717L164.367 893.391Z" stroke="#2B323E" stroke-width="2.5"/>
<path d="M221.985 901.369L215.55 895.84C215.313 895.636 215.185 895.333 215.204 895.021L215.78 885.608C215.837 884.667 214.681 884.176 214.044 884.871L199.433 900.804C198.855 901.435 199.284 902.453 200.139 902.479L221.303 903.127C222.246 903.156 222.701 901.983 221.985 901.369Z" stroke="#2B323E" stroke-width="2.5"/>
<path d="M252.459 519.925C254.87 513.752 251.821 506.793 245.648 504.381L194.419 484.367C188.246 481.955 181.287 485.004 178.875 491.177L164.683 527.503C162.271 533.676 165.32 540.636 171.493 543.047L222.722 563.062C228.896 565.474 235.855 562.425 238.267 556.252L252.459 519.925Z" stroke="#2B323E" stroke-width="2.5"/>
<path d="M353.367 318.925C350.955 312.752 354.004 305.793 360.178 303.381L411.407 283.367C417.58 280.955 424.539 284.004 426.951 290.177L441.143 326.503C443.554 332.676 440.505 339.636 434.332 342.047L383.103 362.062C376.93 364.474 369.971 361.425 367.559 355.252L353.367 318.925Z" stroke="#2B323E" stroke-width="2.5"/>
<path d="M400.083 309.521L395.433 316.616C395.261 316.878 394.977 317.044 394.665 317.066L385.257 317.712C384.317 317.777 383.979 318.986 384.75 319.528L402.439 331.957C403.139 332.449 404.093 331.891 404.009 331.039L401.914 309.97C401.821 309.031 400.6 308.732 400.083 309.521Z" stroke="#2B323E" stroke-width="2.5"/>
<path d="M400.367 857.391C397.955 851.218 401.004 844.259 407.178 841.847L458.407 821.833C464.58 819.421 471.539 822.47 473.951 828.643L488.143 864.969C490.554 871.142 487.505 878.102 481.332 880.513L430.103 900.528C423.93 902.94 416.971 899.89 414.559 893.717L400.367 857.391Z" stroke="#2B323E" stroke-width="2.5"/>
<path d="M447.083 847.986L442.433 855.082C442.261 855.344 441.977 855.51 441.665 855.532L432.257 856.178C431.317 856.242 430.979 857.452 431.75 857.994L449.439 870.422C450.139 870.914 451.093 870.357 451.009 869.505L448.914 848.436C448.821 847.497 447.6 847.198 447.083 847.986Z" stroke="#2B323E" stroke-width="2.5"/>
<path d="M108.459 10.0602C112.49 4.7992 120.022 3.80173 125.283 7.83224L168.943 41.2809C174.204 45.3114 175.201 52.8436 171.171 58.1046L147.453 89.0634C143.422 94.3244 135.89 95.3218 130.629 91.2913L86.969 57.8427C81.7081 53.8122 80.7106 46.28 84.7411 41.019L108.459 10.0602Z" stroke="#2B323E" stroke-width="2.5"/>
<path d="M277.818 306.33L277.283 284.553C277.282 284.144 277.438 283.741 277.718 283.428C277.859 283.272 278.026 283.143 278.212 283.047C278.489 282.909 278.797 282.856 279.095 282.892C279.394 282.929 279.67 283.055 279.889 283.253L302.137 303.284C302.357 303.481 302.511 303.742 302.579 304.036C302.646 304.329 302.625 304.64 302.517 304.931C302.402 305.22 302.209 305.475 301.961 305.667C301.713 305.858 301.42 305.977 301.116 306.012L279.403 307.757C278.993 307.788 278.597 307.656 278.3 307.389C278.003 307.121 277.83 306.741 277.818 306.33Z" stroke="#2B323E" stroke-width="2.5"/>
<path d="M136.86 131.493L146.151 151.196C146.334 151.562 146.653 151.853 147.044 152.007C147.24 152.083 147.448 152.123 147.656 152.126C147.966 152.124 148.265 152.034 148.515 151.867C148.766 151.701 148.956 151.465 149.063 151.189L159.962 123.307C160.07 123.032 160.09 122.729 160.019 122.437C159.948 122.145 159.789 121.876 159.563 121.664C159.33 121.457 159.043 121.316 158.736 121.256C158.428 121.197 158.113 121.221 157.826 121.327L137.636 129.507C137.256 129.663 136.961 129.959 136.816 130.331C136.671 130.703 136.686 131.121 136.86 131.493Z" stroke="#2B323E" stroke-width="2.5"/>
<path d="M324.818 844.796L324.283 823.019C324.282 822.61 324.438 822.207 324.718 821.893C324.859 821.738 325.027 821.609 325.212 821.513C325.489 821.375 325.797 821.322 326.096 821.358C326.394 821.395 326.67 821.52 326.889 821.719L349.137 841.75C349.357 841.947 349.511 842.208 349.579 842.501C349.646 842.794 349.625 843.106 349.517 843.397C349.402 843.686 349.209 843.941 348.961 844.132C348.713 844.324 348.42 844.443 348.116 844.477L326.403 846.223C325.993 846.254 325.597 846.122 325.3 845.854C325.003 845.587 324.83 845.207 324.818 844.796Z" stroke="#2B323E" stroke-width="2.5"/>
<path d="M147.831 189.526C143.801 184.265 136.269 183.268 131.008 187.298L87.3477 220.747C82.0868 224.777 81.0893 232.309 85.1198 237.57L108.838 268.529C112.868 273.79 120.401 274.788 125.662 270.757L169.322 237.309C174.583 233.278 175.58 225.746 171.549 220.485L147.831 189.526Z" stroke="#2B323E" stroke-width="2.5"/>
<path d="M131.567 216.487L133.033 224.843C133.087 225.151 133.283 225.416 133.561 225.559L141.948 229.872C142.785 230.303 142.617 231.547 141.695 231.74L120.534 236.164C119.696 236.339 119.04 235.45 119.454 234.701L129.707 216.175C130.164 215.35 131.404 215.558 131.567 216.487Z" stroke="#2B323E" stroke-width="2.5"/>
<path d="M194.831 727.992C190.801 722.731 183.269 721.733 178.008 725.764L134.348 759.213C129.087 763.243 128.089 770.775 132.12 776.036L155.838 806.995C159.868 812.256 167.401 813.253 172.662 809.223L216.322 775.774C221.583 771.744 222.58 764.212 218.549 758.951L194.831 727.992Z" stroke="#2B323E" stroke-width="2.5"/>
<path d="M178.567 754.953L180.033 763.309C180.087 763.617 180.283 763.882 180.561 764.025L188.948 768.338C189.785 768.769 189.617 770.013 188.695 770.206L167.534 774.63C166.696 774.805 166.04 773.915 166.454 773.167L176.707 754.641C177.164 753.816 178.404 754.024 178.567 754.953Z" stroke="#2B323E" stroke-width="2.5"/>
<path d="M-18.9904 129.059C-23.0209 123.798 -30.5531 122.801 -35.8141 126.831L-79.474 160.28C-84.735 164.31 -85.7325 171.843 -81.7019 177.104L-57.9838 208.062C-53.9533 213.323 -46.4211 214.321 -41.1601 210.29L2.49979 176.842C7.76074 172.811 8.75822 165.279 4.72771 160.018L-18.9904 129.059Z" stroke="#2B323E" stroke-width="2.5"/>
<path d="M-35.2547 156.02L-33.7885 164.376C-33.7344 164.684 -33.5391 164.949 -33.2608 165.092L-24.8742 169.405C-24.0364 169.836 -24.2047 171.081 -25.1269 171.273L-46.2878 175.697C-47.1255 175.872 -47.7818 174.983 -47.3674 174.234L-37.1146 155.709C-36.6579 154.883 -35.4177 155.091 -35.2547 156.02Z" stroke="#2B323E" stroke-width="2.5"/>
<path d="M28.0096 667.525C23.9791 662.264 16.4469 661.267 11.1859 665.297L-32.474 698.746C-37.735 702.776 -38.7325 710.308 -34.7019 715.569L-10.9838 746.528C-6.95332 751.789 0.578904 752.787 5.83986 748.756L49.4998 715.308C54.7607 711.277 55.7582 703.745 51.7277 698.484L28.0096 667.525Z" stroke="#2B323E" stroke-width="2.5"/>
<path d="M11.7453 694.486L13.2115 702.842C13.2656 703.15 13.4609 703.415 13.7392 703.558L22.1258 707.871C22.9636 708.302 22.7953 709.546 21.8731 709.739L0.712181 714.163C-0.125448 714.338 -0.781768 713.449 -0.367393 712.7L9.88544 694.174C10.3421 693.349 11.5823 693.557 11.7453 694.486Z" stroke="#2B323E" stroke-width="2.5"/>
<path d="M108.46 10.0592C112.49 4.79822 120.022 3.80075 125.283 7.83126L168.943 41.2799C174.204 45.3104 175.202 52.8426 171.171 58.1036L147.453 89.0624C143.423 94.3234 135.89 95.3209 130.629 91.2903L86.9695 57.8417C81.7086 53.8112 80.7111 46.279 84.7416 41.018L108.46 10.0592Z" stroke="#2B323E" stroke-width="2.5"/>
<path d="M348.474 798.519C344.124 793.519 336.544 792.993 331.545 797.343L290.053 833.446C285.053 837.797 284.527 845.376 288.877 850.376L314.478 879.797C318.828 884.797 326.408 885.323 331.408 880.973L372.899 844.87C377.899 840.519 378.425 832.94 374.075 827.94L348.474 798.519Z" stroke="#2B323E" stroke-width="2.5"/>
<path d="M-18.9904 129.059C-23.0209 123.798 -30.5531 122.801 -35.8141 126.831L-79.474 160.28C-84.735 164.31 -85.7325 171.843 -81.7019 177.104L-57.9838 208.062C-53.9533 213.323 -46.4211 214.321 -41.1601 210.29L2.49979 176.842C7.76074 172.811 8.75822 165.279 4.72771 160.018L-18.9904 129.059Z" stroke="#2B323E" stroke-width="2.5"/>
<path d="M-35.2547 156.02L-33.7885 164.376C-33.7344 164.684 -33.5391 164.949 -33.2608 165.092L-24.8742 169.405C-24.0364 169.836 -24.2047 171.081 -25.1269 171.273L-46.2878 175.697C-47.1255 175.872 -47.7818 174.983 -47.3674 174.234L-37.1146 155.709C-36.6579 154.883 -35.4177 155.091 -35.2547 156.02Z" stroke="#2B323E" stroke-width="2.5"/>
<path d="M28.0096 667.525C23.9791 662.264 16.4469 661.267 11.1859 665.297L-32.474 698.746C-37.735 702.776 -38.7325 710.308 -34.7019 715.569L-10.9838 746.528C-6.95332 751.789 0.578904 752.787 5.83986 748.756L49.4998 715.308C54.7607 711.277 55.7582 703.745 51.7277 698.484L28.0096 667.525Z" stroke="#2B323E" stroke-width="2.5"/>
<path d="M11.7453 694.486L13.2115 702.842C13.2656 703.15 13.4609 703.415 13.7392 703.558L22.1258 707.871C22.9636 708.302 22.7953 709.546 21.8731 709.739L0.712181 714.163C-0.125448 714.338 -0.781768 713.449 -0.367393 712.7L9.88544 694.174C10.3421 693.349 11.5823 693.557 11.7453 694.486Z" stroke="#2B323E" stroke-width="2.5"/>
<path d="M108.46 10.0592C112.49 4.79822 120.022 3.80075 125.283 7.83126L168.943 41.2799C174.204 45.3104 175.202 52.8426 171.171 58.1036L147.453 89.0624C143.423 94.3234 135.89 95.3209 130.629 91.2903L86.9695 57.8417C81.7086 53.8112 80.7111 46.279 84.7416 41.018L108.46 10.0592Z" stroke="#2B323E" stroke-width="2.5"/>
<path d="M384.673 711.342C381.872 705.335 374.733 702.736 368.726 705.536L318.877 728.775C312.87 731.575 310.27 738.715 313.071 744.721L329.549 780.069C332.349 786.076 339.489 788.675 345.496 785.875L395.345 762.636C401.352 759.836 403.951 752.697 401.151 746.69L384.673 711.342Z" stroke="#2B323E" stroke-width="2.5"/>
<path d="M362.973 734.158L362.602 742.633C362.588 742.946 362.722 743.247 362.962 743.447L370.221 749.468C370.946 750.069 370.513 751.248 369.571 751.238L347.954 750.991C347.098 750.981 346.649 749.971 347.215 749.329L361.225 733.453C361.848 732.745 363.015 733.216 362.973 734.158Z" stroke="#2B323E" stroke-width="2.5"/>
<path d="M-18.9904 129.059C-23.0209 123.798 -30.5531 122.801 -35.8141 126.831L-79.474 160.28C-84.735 164.31 -85.7325 171.843 -81.7019 177.104L-57.9838 208.062C-53.9533 213.323 -46.4211 214.321 -41.1601 210.29L2.49979 176.842C7.76074 172.811 8.75822 165.279 4.72771 160.018L-18.9904 129.059Z" stroke="#2B323E" stroke-width="2.5"/>
<path d="M-35.2547 156.02L-33.7885 164.376C-33.7344 164.684 -33.5391 164.949 -33.2608 165.092L-24.8742 169.405C-24.0364 169.836 -24.2047 171.081 -25.1269 171.273L-46.2878 175.697C-47.1255 175.872 -47.7818 174.983 -47.3674 174.234L-37.1146 155.709C-36.6579 154.883 -35.4177 155.091 -35.2547 156.02Z" stroke="#2B323E" stroke-width="2.5"/>
<path d="M28.0096 667.525C23.9791 662.264 16.4469 661.267 11.1859 665.297L-32.474 698.746C-37.735 702.776 -38.7325 710.308 -34.7019 715.569L-10.9838 746.528C-6.95332 751.789 0.578904 752.787 5.83986 748.756L49.4998 715.308C54.7607 711.277 55.7582 703.745 51.7277 698.484L28.0096 667.525Z" stroke="#2B323E" stroke-width="2.5"/>
<path d="M11.7453 694.486L13.2115 702.842C13.2656 703.15 13.4609 703.415 13.7392 703.558L22.1258 707.871C22.9636 708.302 22.7953 709.546 21.8731 709.739L0.712181 714.163C-0.125448 714.338 -0.781768 713.449 -0.367393 712.7L9.88544 694.174C10.3421 693.349 11.5823 693.557 11.7453 694.486Z" stroke="#2B323E" stroke-width="2.5"/>
<path d="M108.46 10.0592C112.49 4.79822 120.022 3.80075 125.283 7.83126L168.943 41.2799C174.204 45.3104 175.202 52.8426 171.171 58.1036L147.453 89.0624C143.423 94.3234 135.89 95.3209 130.629 91.2903L86.9695 57.8417C81.7086 53.8112 80.7111 46.279 84.7416 41.018L108.46 10.0592Z" stroke="#2B323E" stroke-width="2.5"/>
<path d="M114.472 50.0451L123.791 53.4826C124.05 53.5783 124.259 53.7771 124.366 54.0318L128.651 64.179C129.018 65.0492 130.276 64.9717 130.534 64.063L136.717 42.2763C136.936 41.5011 136.196 40.7974 135.433 41.0563L114.497 48.16C113.605 48.4628 113.588 49.719 114.472 50.0451Z" stroke="#2B323E" stroke-width="2.5"/>
<path d="M107.831 276.526C103.801 271.265 96.2686 270.268 91.0077 274.298L47.3477 307.747C42.0868 311.777 41.0893 319.309 45.1198 324.57L68.838 355.529C72.8685 360.79 80.4007 361.788 85.6616 357.757L129.322 324.309C134.583 320.278 135.58 312.746 131.549 307.485L107.831 276.526Z" stroke="#2B323E" stroke-width="2.5"/>
<path d="M91.5671 303.487L93.0333 311.843C93.0874 312.151 93.2826 312.416 93.5609 312.559L101.948 316.872C102.785 317.303 102.617 318.547 101.695 318.74L80.534 323.164C79.6963 323.339 79.04 322.45 79.4544 321.701L89.7072 303.175C90.1639 302.35 91.4041 302.558 91.5671 303.487Z" stroke="#2B323E" stroke-width="2.5"/>
<path d="M154.831 814.992C150.801 809.731 143.269 808.733 138.008 812.764L94.3477 846.213C89.0868 850.243 88.0893 857.775 92.1198 863.036L115.838 893.995C119.868 899.256 127.401 900.253 132.662 896.223L176.322 862.774C181.583 858.744 182.58 851.212 178.549 845.951L154.831 814.992Z" stroke="#2B323E" stroke-width="2.5"/>
<path d="M138.567 841.953L140.033 850.309C140.087 850.617 140.283 850.882 140.561 851.025L148.948 855.338C149.785 855.769 149.617 857.013 148.695 857.206L127.534 861.63C126.696 861.805 126.04 860.915 126.454 860.167L136.707 841.641C137.164 840.816 138.404 841.024 138.567 841.953Z" stroke="#2B323E" stroke-width="2.5"/>
<path d="M-18.9904 129.059C-23.0209 123.798 -30.5531 122.801 -35.8141 126.831L-79.474 160.28C-84.735 164.31 -85.7325 171.843 -81.7019 177.104L-57.9838 208.062C-53.9533 213.323 -46.4211 214.321 -41.1601 210.29L2.49979 176.842C7.76074 172.811 8.75822 165.279 4.72771 160.018L-18.9904 129.059Z" stroke="#2B323E" stroke-width="2.5"/>
<path d="M-35.2547 156.02L-33.7885 164.376C-33.7344 164.684 -33.5391 164.949 -33.2608 165.092L-24.8742 169.405C-24.0364 169.836 -24.2047 171.081 -25.1269 171.273L-46.2878 175.697C-47.1255 175.872 -47.7818 174.983 -47.3674 174.234L-37.1146 155.709C-36.6579 154.883 -35.4177 155.091 -35.2547 156.02Z" stroke="#2B323E" stroke-width="2.5"/>
<path d="M-10.0253 24.5326C-10.6619 17.9358 -5.83021 12.072 0.766563 11.4354L55.5123 6.15253C62.109 5.51595 67.9728 10.3476 68.6094 16.9444L72.3555 55.7641C72.992 62.3609 68.1604 68.2247 61.5636 68.8612L6.81789 74.1441C0.221113 74.7807 -5.64269 69.949 -6.27927 63.3522L-10.0253 24.5326Z" stroke="#2B323E" stroke-width="2.5"/>
<path d="M20.252 33.175L24.8746 40.2888C25.0451 40.5512 25.083 40.8783 24.9769 41.1727L21.7796 50.0447C21.4602 50.931 22.4317 51.727 23.2379 51.2395L41.7372 40.0534C42.4695 39.6106 42.3435 38.5124 41.53 38.247L21.4007 31.6795C20.5042 31.387 19.7382 32.3843 20.252 33.175Z" stroke="#2B323E" stroke-width="2.5"/>
<path d="M261.495 189.533C262.131 182.936 257.3 177.072 250.703 176.435L195.957 171.153C189.36 170.516 183.496 175.348 182.86 181.944L179.114 220.764C178.477 227.361 183.309 233.225 189.906 233.861L244.651 239.144C251.248 239.781 257.112 234.949 257.749 228.352L261.495 189.533Z" stroke="#2B323E" stroke-width="2.5"/>
<path d="M231.217 198.175L226.595 205.289C226.424 205.551 226.386 205.878 226.492 206.173L229.69 215.045C230.009 215.931 229.038 216.727 228.231 216.239L209.732 205.053C209 204.611 209.126 203.512 209.939 203.247L230.069 196.679C230.965 196.387 231.731 197.384 231.217 198.175Z" stroke="#2B323E" stroke-width="2.5"/>
<path d="M308.495 727.998C309.131 721.402 304.3 715.538 297.703 714.901L242.957 709.618C236.36 708.982 230.496 713.813 229.86 720.41L226.114 759.23C225.477 765.827 230.309 771.691 236.906 772.327L291.651 777.61C298.248 778.247 304.112 773.415 304.749 766.818L308.495 727.998Z" stroke="#2B323E" stroke-width="2.5"/>
<path d="M278.217 736.641L273.595 743.755C273.424 744.017 273.386 744.344 273.492 744.638L276.69 753.511C277.009 754.397 276.038 755.193 275.231 754.705L256.732 743.519C256 743.076 256.126 741.978 256.939 741.713L277.069 735.145C277.965 734.853 278.731 735.85 278.217 736.641Z" stroke="#2B323E" stroke-width="2.5"/>
<path d="M151.975 -21.4674C151.338 -28.0642 156.17 -33.928 162.767 -34.5646L217.512 -39.8475C224.109 -40.4841 229.973 -35.6524 230.609 -29.0556L234.355 9.76409C234.992 16.3609 230.16 22.2247 223.564 22.8612L168.818 28.1441C162.221 28.7807 156.357 23.949 155.721 17.3522L151.975 -21.4674Z" stroke="#2B323E" stroke-width="2.5"/>
<path d="M186.182 5.98809L193.338 1.43147C193.602 1.26339 193.93 1.22857 194.223 1.33738L203.065 4.61646C203.949 4.94403 204.754 3.98001 204.274 3.16935L193.259 -15.4326C192.823 -16.1689 191.724 -16.0531 191.451 -15.242L184.697 4.82562C184.397 5.71943 185.387 6.49461 186.182 5.98809Z" stroke="#2B323E" stroke-width="2.5"/>
<path d="M92.3555 172.533C92.992 165.936 88.1603 160.072 81.5636 159.435L26.8179 154.153C20.2211 153.516 14.3573 158.348 13.7207 164.944L9.97467 203.764C9.33809 210.361 14.1698 216.225 20.7666 216.861L75.5123 222.144C82.109 222.781 87.9728 217.949 88.6094 211.352L92.3555 172.533Z" stroke="#2B323E" stroke-width="2.5"/>
<path d="M57.2261 200.546L50.4516 195.44C50.2018 195.251 49.8781 195.191 49.577 195.276L40.5038 197.848C39.5974 198.104 38.8711 197.08 39.4135 196.31L51.8609 178.634C52.3536 177.935 53.4404 178.137 53.6485 178.967L58.7981 199.505C59.0274 200.419 57.9792 201.114 57.2261 200.546Z" stroke="#2B323E" stroke-width="2.5"/>
<path d="M116.534 743.533C117.17 736.936 112.339 731.072 105.742 730.435L50.9961 725.153C44.3993 724.516 38.5355 729.348 37.8989 735.944L34.1529 774.764C33.5163 781.361 38.348 787.225 44.9448 787.861L99.6905 793.144C106.287 793.781 112.151 788.949 112.788 782.352L116.534 743.533Z" stroke="#2B323E" stroke-width="2.5"/>
<path d="M81.4044 771.546L74.6299 766.44C74.38 766.251 74.0563 766.191 73.7552 766.276L64.682 768.848C63.7756 769.104 63.0493 768.08 63.5918 767.31L76.0392 749.634C76.5319 748.935 77.6186 749.137 77.8267 749.967L82.9763 770.505C83.2056 771.419 82.1574 772.114 81.4044 771.546Z" stroke="#2B323E" stroke-width="2.5"/>
<path d="M251.587 144.262L234.6 154.762C234.277 154.953 233.886 155.016 233.508 154.939C233.32 154.9 233.14 154.827 232.978 154.725C232.741 154.569 232.556 154.35 232.447 154.097C232.338 153.844 232.309 153.567 232.365 153.302L237.922 126.425C237.976 126.16 238.112 125.917 238.313 125.728C238.513 125.539 238.77 125.412 239.05 125.362C239.332 125.32 239.623 125.354 239.889 125.462C240.155 125.57 240.386 125.746 240.553 125.971L251.983 142.347C252.197 142.657 252.276 143.032 252.201 143.391C252.127 143.749 251.906 144.062 251.587 144.262Z" stroke="#2B323E" stroke-width="2.5"/>
<path d="M209.967 115.712C211.41 109.244 217.824 105.17 224.292 106.614L271.554 117.162C278.023 118.605 282.096 125.019 280.652 131.487L273.3 164.433C271.856 170.902 265.442 174.975 258.974 173.531L211.712 162.984C205.244 161.54 201.17 155.126 202.614 148.658L209.967 115.712Z" stroke="#2B323E" stroke-width="2.5"/>
<path d="M298.587 682.728L281.6 693.228C281.277 693.418 280.886 693.482 280.508 693.405C280.32 693.366 280.14 693.293 279.978 693.191C279.741 693.034 279.556 692.816 279.447 692.563C279.338 692.309 279.309 692.033 279.365 691.768L284.922 664.891C284.976 664.626 285.112 664.383 285.313 664.194C285.513 664.005 285.77 663.877 286.05 663.828C286.332 663.786 286.623 663.82 286.889 663.928C287.155 664.036 287.386 664.212 287.553 664.437L298.983 680.813C299.197 681.123 299.276 681.498 299.201 681.856C299.127 682.215 298.906 682.528 298.587 682.728Z" stroke="#2B323E" stroke-width="2.5"/>
<path d="M256.967 654.178C258.41 647.71 264.824 643.636 271.292 645.08L318.554 655.627C325.023 657.071 329.096 663.485 327.652 669.953L320.3 702.899C318.856 709.367 312.442 713.441 305.974 711.997L258.712 701.449C252.244 700.006 248.17 693.592 249.614 687.124L256.967 654.178Z" stroke="#2B323E" stroke-width="2.5"/>
<path d="M16.6529 101.592C14.5372 95.3113 17.9135 88.5048 24.1941 86.389L76.3162 68.8309C82.5969 66.7151 89.4034 70.0915 91.5192 76.3721L103.97 113.331C106.085 119.612 102.709 126.419 96.4283 128.534L44.3062 146.092C38.0256 148.208 31.219 144.832 29.1033 138.551L16.6529 101.592Z" stroke="#2B323E" stroke-width="2.5"/>
<path d="M74.1439 111.266L67.5377 105.944C67.294 105.747 67.1563 105.448 67.1655 105.135L67.444 95.7088C67.4719 94.7671 66.3011 94.3129 65.6865 95.027L51.5851 111.413C51.0269 112.062 51.4883 113.066 52.344 113.065L73.5175 113.045C74.4606 113.044 74.8783 111.858 74.1439 111.266Z" stroke="#2B323E" stroke-width="2.5"/>
<path d="M243.97 273.592C246.085 267.311 242.709 260.505 236.428 258.389L184.306 240.831C178.026 238.715 171.219 242.091 169.103 248.372L156.653 285.331C154.537 291.612 157.914 298.419 164.194 300.534L216.316 318.092C222.597 320.208 229.404 316.832 231.519 310.551L243.97 273.592Z" stroke="#2B323E" stroke-width="2.5"/>
<path d="M212.521 275.144L206.406 281.025C206.181 281.242 206.07 281.552 206.106 281.862L207.209 291.228C207.319 292.164 206.192 292.719 205.517 292.061L190.036 276.972C189.423 276.375 189.795 275.334 190.648 275.26L211.742 273.427C212.681 273.346 213.201 274.491 212.521 275.144Z" stroke="#2B323E" stroke-width="2.5"/>
<path d="M290.97 812.058C293.085 805.777 289.709 798.971 283.428 796.855L231.306 779.297C225.026 777.181 218.219 780.557 216.103 786.838L203.653 823.797C201.537 830.078 204.914 836.884 211.194 839L263.316 856.558C269.597 858.674 276.404 855.298 278.519 849.017L290.97 812.058Z" stroke="#2B323E" stroke-width="2.5"/>
<path d="M259.521 813.61L253.406 819.491C253.181 819.707 253.07 820.017 253.106 820.328L254.209 829.694C254.319 830.63 253.192 831.185 252.517 830.527L237.036 815.438C236.423 814.841 236.795 813.8 237.648 813.726L258.742 811.893C259.681 811.812 260.201 812.957 259.521 813.61Z" stroke="#2B323E" stroke-width="2.5"/>
<path d="M182.653 63.592C180.537 57.3114 183.914 50.5048 190.194 48.389L242.316 30.8309C248.597 28.7151 255.403 32.0914 257.519 38.3721L269.97 75.3314C272.085 81.612 268.709 88.4186 262.428 90.5343L210.306 108.092C204.026 110.208 197.219 106.832 195.103 100.551L182.653 63.592Z" stroke="#2B323E" stroke-width="2.5"/>
<path d="M214.101 65.1444L220.216 71.0247C220.442 71.2416 220.553 71.5516 220.516 71.8624L219.414 81.2283C219.304 82.164 220.431 82.7189 221.105 82.0614L236.586 66.9721C237.199 66.3748 236.828 65.3338 235.975 65.2597L214.881 63.4273C213.941 63.3457 213.422 64.4907 214.101 65.1444Z" stroke="#2B323E" stroke-width="2.5"/>
<path d="M71.9697 253.592C74.0854 247.311 70.7091 240.505 64.4285 238.389L12.3064 220.831C6.02576 218.715 -0.780836 222.091 -2.89657 228.372L-15.3469 265.331C-17.4626 271.612 -14.0863 278.419 -7.80568 280.534L44.3164 298.092C50.597 300.208 57.4036 296.832 59.5194 290.551L71.9697 253.592Z" stroke="#2B323E" stroke-width="2.5"/>
<path d="M40.5213 255.144L34.4062 261.025C34.1806 261.242 34.0696 261.552 34.1062 261.862L35.2085 271.228C35.3186 272.164 34.1921 272.719 33.5174 272.061L18.0361 256.972C17.4233 256.375 17.795 255.334 18.6476 255.26L39.7416 253.427C40.6811 253.346 41.2011 254.491 40.5213 255.144Z" stroke="#2B323E" stroke-width="2.5"/>
<path d="M84.7598 817.752C85.9292 811.229 81.5889 804.993 75.0655 803.823L20.9286 794.118C14.4051 792.949 8.16882 797.289 6.99937 803.812L0.117592 842.2C-1.05186 848.724 3.2884 854.96 9.81182 856.129L63.9488 865.835C70.4722 867.004 76.7085 862.664 77.878 856.14L84.7598 817.752Z" stroke="#2B323E" stroke-width="2.5"/>
<path d="M53.8813 823.911L48.697 830.626C48.5058 830.874 48.4416 831.197 48.5234 831.499L50.9906 840.601C51.2371 841.51 50.2044 842.225 49.4404 841.674L31.909 829.024C31.2151 828.524 31.4297 827.439 32.2621 827.241L52.8576 822.327C53.7749 822.108 54.4575 823.164 53.8813 823.911Z" stroke="#2B323E" stroke-width="2.5"/>
<path d="M57.1479 359.592C59.2637 353.311 55.8873 346.505 49.6067 344.389L-2.51538 326.831C-8.79601 324.715 -15.6026 328.091 -17.7183 334.372L-30.1687 371.331C-32.2844 377.612 -28.9081 384.419 -22.6275 386.534L29.4946 404.092C35.7753 406.208 42.5819 402.832 44.6976 396.551L57.1479 359.592Z" stroke="#2B323E" stroke-width="2.5"/>
<path d="M25.6995 361.144L19.5844 367.025C19.3589 367.242 19.2478 367.552 19.2844 367.862L20.3867 377.228C20.4969 378.164 19.3703 378.719 18.6956 378.061L3.21434 362.972C2.60153 362.375 2.97325 361.334 3.82578 361.26L24.9199 359.427C25.8594 359.346 26.3793 360.491 25.6995 361.144Z" stroke="#2B323E" stroke-width="2.5"/>
<path d="M104.148 898.058C106.264 891.777 102.887 884.971 96.6067 882.855L44.4846 865.297C38.204 863.181 31.3974 866.557 29.2817 872.838L16.8313 909.797C14.7156 916.078 18.0919 922.884 24.3725 925L76.4946 942.558C82.7752 944.674 89.5819 941.298 91.6976 935.017L104.148 898.058Z" stroke="#2B323E" stroke-width="2.5"/>
<path d="M72.6995 899.61L66.5844 905.491C66.3588 905.707 66.2478 906.017 66.2844 906.328L67.3867 915.694C67.4969 916.63 66.3703 917.185 65.6956 916.527L50.2143 901.438C49.6015 900.841 49.9733 899.8 50.8258 899.726L71.9198 897.893C72.8594 897.812 73.3793 898.957 72.6995 899.61Z" stroke="#2B323E" stroke-width="2.5"/>
<path d="M193.28 130.925C195.692 124.752 192.643 117.793 186.47 115.381L135.241 95.3669C129.068 92.9552 122.109 96.0043 119.697 102.177L105.505 138.503C103.093 144.676 106.142 151.636 112.315 154.047L163.544 174.062C169.717 176.474 176.677 173.425 179.088 167.252L193.28 130.925Z" stroke="#2B323E" stroke-width="2.5"/>
<path d="M207.268 675.376L213.32 688.209C213.439 688.448 213.647 688.637 213.902 688.738C214.029 688.787 214.165 688.813 214.3 688.815C214.502 688.814 214.697 688.755 214.86 688.647C215.023 688.538 215.147 688.384 215.217 688.205L222.316 670.043C222.386 669.864 222.399 669.667 222.353 669.477C222.307 669.287 222.203 669.111 222.056 668.974C221.904 668.839 221.717 668.747 221.517 668.708C221.317 668.669 221.111 668.685 220.924 668.754L207.774 674.082C207.526 674.183 207.334 674.376 207.24 674.619C207.145 674.861 207.155 675.133 207.268 675.376Z" stroke="#2B323E" stroke-width="2.5"/>
<path d="M242.496 678.903C244.907 672.73 241.858 665.77 235.685 663.359L210.11 653.367C203.937 650.955 196.978 654.004 194.566 660.177L188.367 676.045C185.955 682.218 189.004 689.177 195.178 691.589L220.752 701.581C226.925 703.993 233.885 700.944 236.296 694.771L242.496 678.903Z" stroke="#2B323E" stroke-width="2.5"/>
<path d="M402.866 363.712C404.31 357.244 410.724 353.17 417.192 354.614L458.273 363.782C464.741 365.226 468.815 371.64 467.371 378.108L461.118 406.124C459.675 412.593 453.261 416.666 446.793 415.223L405.712 406.054C399.244 404.611 395.17 398.197 396.614 391.729L402.866 363.712Z" stroke="#2B323E" stroke-width="2.5"/>
<path d="M425.245 376.985L426.933 383.317C427.013 383.62 426.948 383.942 426.755 384.189L422.241 389.986C421.662 390.729 422.338 391.788 423.256 391.575L440.077 387.67C440.911 387.477 441.132 386.394 440.441 385.889L426.801 375.92C426.04 375.363 425.002 376.073 425.245 376.985Z" stroke="#2B323E" stroke-width="2.5"/>
<path d="M456.01 663.526C451.979 658.265 444.447 657.268 439.186 661.298L395.526 694.747C390.265 698.777 389.268 706.309 393.298 711.57L417.016 742.529C421.047 747.79 428.579 748.788 433.84 744.757L477.5 711.309C482.761 707.278 483.758 699.746 479.728 694.485L456.01 663.526Z" stroke="#2B323E" stroke-width="2.5"/>
<path d="M439.745 690.487L441.212 698.843C441.266 699.151 441.461 699.416 441.739 699.559L450.126 703.872C450.964 704.303 450.795 705.547 449.873 705.74L428.712 710.164C427.875 710.339 427.218 709.45 427.633 708.701L437.885 690.175C438.342 689.35 439.582 689.558 439.745 690.487Z" stroke="#2B323E" stroke-width="2.5"/>
<path d="M446.722 622.493L456.013 642.196C456.196 642.562 456.516 642.853 456.906 643.007C457.102 643.083 457.31 643.123 457.518 643.126C457.828 643.124 458.127 643.034 458.378 642.867C458.628 642.701 458.819 642.465 458.925 642.189L469.824 614.307C469.932 614.032 469.952 613.729 469.881 613.437C469.81 613.145 469.652 612.876 469.425 612.664C469.192 612.458 468.905 612.316 468.598 612.256C468.29 612.197 467.975 612.221 467.688 612.327L447.499 620.507C447.119 620.663 446.824 620.959 446.678 621.331C446.533 621.703 446.549 622.121 446.722 622.493Z" stroke="#2B323E" stroke-width="2.5"/>
<path d="M503.143 621.925C505.554 615.752 502.505 608.793 496.332 606.381L445.103 586.367C438.93 583.955 431.971 587.004 429.559 593.177L415.367 629.503C412.955 635.676 416.004 642.636 422.177 645.047L473.407 665.062C479.58 667.474 486.539 664.425 488.951 658.252L503.143 621.925Z" stroke="#2B323E" stroke-width="2.5"/>
<path d="M416.479 511.885C418.21 505.488 424.8 501.705 431.197 503.437L484.287 517.805C490.685 519.537 494.467 526.126 492.736 532.523L482.547 570.169C480.816 576.566 474.226 580.349 467.829 578.617L414.739 564.249C408.342 562.518 404.559 555.928 406.291 549.531L416.479 511.885Z" stroke="#2B323E" stroke-width="2.5"/>
<path d="M494.576 448.192C496.691 441.911 493.315 435.104 487.034 432.989L447.975 419.831C441.695 417.715 434.888 421.092 432.772 427.372L423.831 453.914C421.716 460.195 425.092 467.001 431.373 469.117L470.432 482.275C476.712 484.39 483.519 481.014 485.635 474.734L494.576 448.192Z" stroke="#2B323E" stroke-width="2.5"/>
<path d="M468.927 447.831L464.297 452.283C464.072 452.5 463.961 452.81 463.997 453.121L464.84 460.278C464.95 461.213 463.823 461.768 463.149 461.111L450.994 449.264C450.381 448.666 450.753 447.625 451.605 447.551L468.147 446.114C469.087 446.033 469.607 447.178 468.927 447.831Z" stroke="#2B323E" stroke-width="2.5"/>
<path d="M270.46 -35.9408C274.49 -41.2018 282.022 -42.1993 287.283 -38.1687L330.943 -4.72011C336.204 -0.689598 337.202 6.84262 333.171 12.1036L309.453 43.0624C305.423 48.3234 297.89 49.3209 292.629 45.2904L248.97 11.8417C243.709 7.81121 242.711 0.278987 246.742 -4.98197L270.46 -35.9408Z" stroke="#2B323E" stroke-width="2.5"/>
<path d="M286.724 -8.98002L285.258 -0.623978C285.204 -0.315749 285.008 -0.0506089 284.73 0.0925026L276.344 4.40526C275.506 4.8361 275.674 6.08061 276.596 6.2734L297.757 10.6972C298.595 10.8723 299.251 9.98287 298.837 9.23415L288.584 -9.29142C288.127 -10.1165 286.887 -9.90888 286.724 -8.98002Z" stroke="#2B323E" stroke-width="2.5"/>
<path d="M301.474 260.053C297.124 255.053 289.544 254.527 284.545 258.877L243.053 294.98C238.053 299.331 237.527 306.911 241.877 311.91L267.478 341.332C271.828 346.331 279.408 346.858 284.408 342.507L325.899 306.404C330.899 302.054 331.425 294.474 327.075 289.474L301.474 260.053Z" stroke="#2B323E" stroke-width="2.5"/>
<path d="M270.46 -35.9408C274.49 -41.2018 282.022 -42.1993 287.283 -38.1687L330.943 -4.72011C336.204 -0.689598 337.202 6.84262 333.171 12.1036L309.453 43.0624C305.423 48.3234 297.89 49.3209 292.629 45.2904L248.97 11.8417C243.709 7.81121 242.711 0.278987 246.742 -4.98197L270.46 -35.9408Z" stroke="#2B323E" stroke-width="2.5"/>
<path d="M286.724 -8.98002L285.258 -0.623978C285.204 -0.315749 285.008 -0.0506089 284.73 0.0925026L276.344 4.40526C275.506 4.8361 275.674 6.08061 276.596 6.2734L297.757 10.6972C298.595 10.8723 299.251 9.98287 298.837 9.23415L288.584 -9.29142C288.127 -10.1165 286.887 -9.90888 286.724 -8.98002Z" stroke="#2B323E" stroke-width="2.5"/>
<path d="M337.673 172.876C334.872 166.87 327.733 164.27 321.726 167.07L271.877 190.309C265.87 193.109 263.27 200.249 266.071 206.256L282.549 241.603C285.349 247.61 292.489 250.21 298.496 247.409L348.345 224.171C354.352 221.37 356.951 214.231 354.151 208.224L337.673 172.876Z" stroke="#2B323E" stroke-width="2.5"/>
<path d="M315.973 195.692L315.602 204.168C315.588 204.48 315.722 204.781 315.962 204.981L323.221 211.002C323.946 211.604 323.513 212.782 322.571 212.772L300.954 212.525C300.098 212.515 299.649 211.505 300.215 210.863L314.225 194.987C314.848 194.28 316.015 194.75 315.973 195.692Z" stroke="#2B323E" stroke-width="2.5"/>
<path d="M270.46 -35.9408C274.49 -41.2018 282.022 -42.1993 287.283 -38.1687L330.943 -4.72011C336.204 -0.689598 337.202 6.84262 333.171 12.1036L309.453 43.0624C305.423 48.3234 297.89 49.3209 292.629 45.2904L248.97 11.8417C243.709 7.81121 242.711 0.278987 246.742 -4.98197L270.46 -35.9408Z" stroke="#2B323E" stroke-width="2.5"/>
<path d="M286.724 -8.98002L285.258 -0.623978C285.204 -0.315749 285.008 -0.0506089 284.73 0.0925026L276.344 4.40526C275.506 4.8361 275.674 6.08061 276.596 6.2734L297.757 10.6972C298.595 10.8723 299.251 9.98287 298.837 9.23415L288.584 -9.29142C288.127 -10.1165 286.887 -9.90888 286.724 -8.98002Z" stroke="#2B323E" stroke-width="2.5"/>
<path d="M270.46 -35.9408C274.49 -41.2018 282.022 -42.1993 287.283 -38.1687L330.943 -4.72011C336.204 -0.689598 337.202 6.84262 333.171 12.1036L309.453 43.0624C305.423 48.3234 297.89 49.3209 292.629 45.2904L248.97 11.8417C243.709 7.81121 242.711 0.278987 246.742 -4.98197L270.46 -35.9408Z" stroke="#2B323E" stroke-width="2.5"/>
<path d="M286.724 -8.98002L285.258 -0.623978C285.204 -0.315749 285.008 -0.0506089 284.73 0.0925026L276.344 4.40526C275.506 4.8361 275.674 6.08061 276.596 6.2734L297.757 10.6972C298.595 10.8723 299.251 9.98287 298.837 9.23415L288.584 -9.29142C288.127 -10.1165 286.887 -9.90888 286.724 -8.98002Z" stroke="#2B323E" stroke-width="2.5"/>
<path d="M286.93 63.7121C288.374 57.2438 294.788 53.1704 301.256 54.614L354.936 66.5938C361.404 68.0374 365.477 74.4512 364.034 80.9195L355.539 118.983C354.095 125.451 347.681 129.525 341.213 128.081L287.534 116.101C281.065 114.658 276.992 108.244 278.436 101.776L286.93 63.7121Z" stroke="#2B323E" stroke-width="2.5"/>
<path d="M313.027 81.33L315.212 89.5275C315.292 89.8299 315.227 90.1526 315.034 90.3995L309.24 97.84C308.661 98.5833 309.337 99.6415 310.255 99.4285L331.314 94.5405C332.147 94.3471 332.368 93.264 331.677 92.7591L314.583 80.2651C313.822 79.7086 312.784 80.4187 313.027 81.33Z" stroke="#2B323E" stroke-width="2.5"/>
<path d="M341.866 14.7121C343.31 8.24377 349.724 4.1704 356.192 5.61396L397.273 14.7822C403.741 16.2257 407.815 22.6395 406.371 29.1078L400.118 57.1244C398.675 63.5927 392.261 67.6661 385.793 66.2225L344.712 57.0543C338.244 55.6108 334.17 49.197 335.614 42.7287L341.866 14.7121Z" stroke="#2B323E" stroke-width="2.5"/>
<path d="M364.245 27.9845L365.933 34.3172C366.013 34.6196 365.948 34.9423 365.755 35.1892L361.241 40.986C360.662 41.7293 361.338 42.7876 362.256 42.5746L379.077 38.6702C379.911 38.4767 380.132 37.3937 379.441 36.8887L365.801 26.9196C365.04 26.3632 364.002 27.0733 364.245 27.9845Z" stroke="#2B323E" stroke-width="2.5"/>
<path d="M399.516 -54.9398C403.547 -60.2008 411.079 -61.1983 416.34 -57.1678L460 -23.7191C465.261 -19.6886 466.258 -12.1564 462.228 -6.89545L438.51 24.0634C434.479 29.3244 426.947 30.3218 421.686 26.2913L378.026 -7.15731C372.765 -11.1878 371.768 -18.72 375.798 -23.981L399.516 -54.9398Z" stroke="#2B323E" stroke-width="2.5"/>
<path d="M550.149 81.9172L531.62 93.3709C531.267 93.5784 530.841 93.6475 530.429 93.564C530.224 93.5207 530.028 93.4413 529.851 93.3299C529.592 93.1595 529.391 92.9211 529.272 92.6449C529.153 92.3687 529.121 92.067 529.182 91.7778L535.244 62.4612C535.303 62.1717 535.451 61.907 535.67 61.7006C535.889 61.4943 536.168 61.3555 536.474 61.3016C536.782 61.2552 537.099 61.2929 537.39 61.4105C537.68 61.528 537.931 61.7204 538.114 61.9656L550.581 79.8284C550.815 80.1665 550.9 80.5756 550.82 80.9668C550.739 81.3579 550.498 81.6995 550.149 81.9172Z" stroke="#2B323E" stroke-width="2.5"/>
<path d="M568.875 241.33L568.34 219.553C568.339 219.144 568.495 218.741 568.775 218.428C568.916 218.272 569.084 218.143 569.269 218.047C569.547 217.909 569.854 217.856 570.153 217.892C570.451 217.929 570.727 218.055 570.946 218.253L593.194 238.284C593.414 238.481 593.568 238.742 593.636 239.036C593.703 239.329 593.682 239.64 593.574 239.931C593.459 240.22 593.266 240.475 593.018 240.667C592.77 240.858 592.477 240.977 592.173 241.012L570.46 242.757C570.05 242.788 569.654 242.656 569.357 242.389C569.06 242.121 568.887 241.741 568.875 241.33Z" stroke="#2B323E" stroke-width="2.5"/>
<path d="M427.917 66.4932L437.208 86.1958C437.391 86.5622 437.71 86.8526 438.101 87.0071C438.297 87.0828 438.505 87.123 438.713 87.1258C439.023 87.124 439.322 87.0341 439.573 86.8674C439.823 86.7007 440.014 86.4647 440.12 86.1891L451.019 58.3068C451.127 58.0319 451.147 57.7292 451.076 57.437C451.005 57.1447 450.846 56.8758 450.62 56.6643C450.387 56.4575 450.1 56.316 449.793 56.2563C449.485 56.1965 449.17 56.221 448.883 56.3268L428.694 64.5066C428.313 64.6627 428.019 64.959 427.873 65.331C427.728 65.703 427.744 66.1207 427.917 66.4932Z" stroke="#2B323E" stroke-width="2.5"/>
<path d="M423.788 122.591C422.073 116.19 415.493 112.391 409.091 114.106L355.591 128.441C349.19 130.157 345.391 136.737 347.106 143.138L357.28 181.108C358.995 187.509 365.575 191.308 371.977 189.593L425.477 175.258C431.878 173.542 435.677 166.962 433.962 160.561L423.788 122.591Z" stroke="#2B323E" stroke-width="2.5"/>
<path d="M379.583 153.61L399.275 162.922C399.649 163.089 400.081 163.11 400.481 162.981C400.68 162.915 400.866 162.814 401.029 162.684C401.267 162.486 401.441 162.226 401.528 161.938C401.616 161.651 401.613 161.347 401.52 161.067L392.221 132.611C392.131 132.33 391.954 132.083 391.713 131.902C391.473 131.722 391.179 131.615 390.87 131.596C390.559 131.584 390.247 131.657 389.972 131.806C389.697 131.955 389.469 132.175 389.314 132.439L378.92 151.582C378.726 151.944 378.686 152.361 378.811 152.74C378.935 153.12 379.212 153.432 379.583 153.61Z" stroke="#2B323E" stroke-width="2.5"/>
<path d="M466.01 159.526C461.979 154.265 454.447 153.268 449.186 157.298L405.526 190.747C400.265 194.777 399.268 202.309 403.298 207.57L427.016 238.529C431.047 243.79 438.579 244.788 443.84 240.757L487.5 207.309C492.761 203.278 493.758 195.746 489.728 190.485L466.01 159.526Z" stroke="#2B323E" stroke-width="2.5"/>
<path d="M449.745 186.487L451.212 194.843C451.266 195.151 451.461 195.416 451.739 195.559L460.126 199.872C460.964 200.303 460.795 201.547 459.873 201.74L438.712 206.164C437.875 206.339 437.218 205.45 437.633 204.701L447.885 186.175C448.342 185.35 449.582 185.558 449.745 186.487Z" stroke="#2B323E" stroke-width="2.5"/>
<path d="M399.517 -54.9408C403.547 -60.2018 411.08 -61.1993 416.341 -57.1687L460 -23.7201C465.261 -19.6896 466.259 -12.1574 462.228 -6.89642L438.51 24.0624C434.48 29.3234 426.948 30.3209 421.687 26.2904L378.027 -7.15828C372.766 -11.1888 371.768 -18.721 375.799 -23.982L399.517 -54.9408Z" stroke="#2B323E" stroke-width="2.5"/>
<path d="M399.517 -54.9408C403.547 -60.2018 411.08 -61.1993 416.341 -57.1687L460 -23.7201C465.261 -19.6896 466.259 -12.1574 462.228 -6.89642L438.51 24.0624C434.48 29.3234 426.948 30.3209 421.687 26.2904L378.027 -7.15828C372.766 -11.1888 371.768 -18.721 375.799 -23.982L399.517 -54.9408Z" stroke="#2B323E" stroke-width="2.5"/>
<path d="M399.517 -54.9408C403.547 -60.2018 411.08 -61.1993 416.341 -57.1687L460 -23.7201C465.261 -19.6896 466.259 -12.1574 462.228 -6.89642L438.51 24.0624C434.48 29.3234 426.948 30.3209 421.687 26.2904L378.027 -7.15828C372.766 -11.1888 371.768 -18.721 375.799 -23.982L399.517 -54.9408Z" stroke="#2B323E" stroke-width="2.5"/>
<path d="M405.529 -14.9549L414.848 -11.5174C415.108 -11.4217 415.316 -11.2229 415.423 -10.9682L419.708 -0.821041C420.075 0.0491877 421.333 -0.0282897 421.591 -0.937035L427.774 -22.7237C427.994 -23.4989 427.253 -24.2026 426.49 -23.9437L405.554 -16.84C404.662 -16.5372 404.645 -15.281 405.529 -14.9549Z" stroke="#2B323E" stroke-width="2.5"/>
<path d="M398.888 211.526C394.858 206.265 387.326 205.268 382.065 209.298L338.405 242.747C333.144 246.777 332.146 254.309 336.177 259.57L359.895 290.529C363.926 295.79 371.458 296.788 376.719 292.757L420.379 259.309C425.64 255.278 426.637 247.746 422.607 242.485L398.888 211.526Z" stroke="#2B323E" stroke-width="2.5"/>
<path d="M382.624 238.487L384.09 246.843C384.145 247.151 384.34 247.416 384.618 247.559L393.005 251.872C393.843 252.303 393.674 253.547 392.752 253.74L371.591 258.164C370.753 258.339 370.097 257.45 370.512 256.701L380.764 238.175C381.221 237.35 382.461 237.558 382.624 238.487Z" stroke="#2B323E" stroke-width="2.5"/>
<path d="M484.338 65.9255C486.749 59.7524 483.7 52.7931 477.527 50.3814L426.298 30.3669C420.125 27.9552 413.166 31.0043 410.754 37.1773L396.562 73.5034C394.15 79.6764 397.199 86.6357 403.372 89.0475L454.601 109.062C460.774 111.474 467.734 108.425 470.145 102.252L484.338 65.9255Z" stroke="#2B323E" stroke-width="2.5"/>
<path d="M445.888 749.992C441.858 744.731 434.326 743.733 429.065 747.764L385.405 781.213C380.144 785.243 379.146 792.775 383.177 798.036L406.895 828.995C410.926 834.256 418.458 835.253 423.719 831.223L467.379 797.774C472.64 793.744 473.637 786.212 469.607 780.951L445.888 749.992Z" stroke="#2B323E" stroke-width="2.5"/>
<path d="M429.624 776.953L431.09 785.309C431.145 785.617 431.34 785.882 431.618 786.025L440.005 790.338C440.843 790.769 440.674 792.013 439.752 792.206L418.591 796.63C417.753 796.805 417.097 795.915 417.512 795.167L427.764 776.641C428.221 775.816 429.461 776.024 429.624 776.953Z" stroke="#2B323E" stroke-width="2.5"/>
</svg>
